<svg viewBox="0 0 64 64" xmlns="http://www.w3.org/2000/svg">
 <defs>
  <radialGradient id="a" cx="50%" cy="50%" r="55%" fx="50%" fy="55%" gradientUnits="userSpaceOnUse">
    <stop offset="0%" stop-color="#fff774"/>
    <stop offset="50%" stop-color="#ffba23"/>
    <stop offset="100%" stop-color="#f95625"/>
  </radialGradient>
 </defs>
 <g>
  <path d="M32 6C35.5 20 54 25 54 43c0 9-9.4 15-21.6 15C19 58 10 52 10 43c0-19 19-24 22-37z" fill="url(#a)"/>
  <path d="M31.6 18c2.2 9.5 13.3 12.7 13.3 22.5 0 7.4-7 11.7-15.8 11.7-7.9 0-13.8-4.9-13.8-11.7 0-10.7 10.5-13.6 13.8-22.5z" fill="#fffcea" opacity="0.6"/>
  <path d="M33 41c.7 3.3 4.7 4.8 4.7 8.2 0 2.7-2.4 4.3-5.4 4.3-2.5 0-4.3-1.5-4.3-4.3C28 46 31.2 44.5 33 41z" fill="#fff" opacity="0.6"/>
 </g>
</svg>
